<?xml version="1.0" encoding="utf-8"?>
<svg xmlns="http://www.w3.org/2000/svg">
  <defs>
    <symbol
      id="across-logo"
      viewBox="0 0 32 32"
      fill="none"
      xmlns="http://www.w3.org/2000/svg"
    >
      <rect width="100%" height="100%" rx="16" />
      <path
        fillRule="evenodd"
        clipRule="evenodd"
        d="M6.95155 8.41964L8.51084 6.86035L14.7421 13.0917C14.364 13.2528 14.0097 13.4876 13.7012 13.7961C13.4623 14.035 13.2675 14.3014 13.117 14.5851L6.95155 8.41964ZM12.9996 17.4397L6.85938 23.5799L8.41866 25.1392L14.4964 19.0614C14.2104 18.9105 13.9419 18.7146 13.7012 18.474C13.3945 18.1673 13.1606 17.8154 12.9996 17.4397ZM17.5901 19.0582L23.5839 25.052L25.1432 23.4927L19.0835 17.433C18.9224 17.8112 18.6875 18.1655 18.379 18.474C18.1401 18.7129 17.8737 18.9076 17.5901 19.0582ZM18.9665 14.5913L25.051 8.50682L23.4917 6.94754L17.3448 13.0945C17.7204 13.2556 18.0724 13.4894 18.379 13.7961C18.6197 14.0368 18.8155 14.3053 18.9665 14.5913Z"
        fill="currentColor"
      />
    </symbol>
    <symbol id="check" viewBox="0 0 14 10" fill="transparent">
      <path
        d="m1 5 4 4 8-8"
        stroke="currentColor"
        stroke-width="1.5"
        stroke-linecap="round"
        stroke-linejoin="round"
      />
    </symbol>
    <symbol id="chevron" viewBox="0 0 14 8" fill="transparent">
      <path
        d="M13 7 7 1 1 7"
        stroke="currentColor"
        stroke-width="2"
        stroke-linecap="round"
        stroke-linejoin="round"
      />
    </symbol>
    <symbol id="logo" viewBox="0 0 32 28" fill="none">
      <path
        fill-rule="evenodd"
        clip-rule="evenodd"
        d="M23.87 3.815a11 11 0 0 0-15.74 0l-6.796 6.911a4.685 4.685 0 0 0 0 6.548l6.796 6.911a11 11 0 0 0 15.74 0l6.796-6.911a4.685 4.685 0 0 0 0-6.548L23.87 3.815Zm2.593 8.739a1.603 1.603 0 0 1 0 2.24l-6.332 6.439a1.54 1.54 0 0 1-2.204 0l-7.434-7.56 2.202-2.24 6.334 6.44 4.13-4.2-6.195-6.3a1.603 1.603 0 0 1 0-2.239 1.54 1.54 0 0 1 2.202 0l7.272 7.394.025.025Zm-12.666-6.44.025.026 7.317 7.44-2.203 2.24-6.24-6.346-4.13 4.2 6.193 6.299a1.603 1.603 0 0 1 0 2.24 1.54 1.54 0 0 1-2.202 0l-7.297-7.42a1.603 1.603 0 0 1 .05-2.287l6.247-6.354.037-.038a1.54 1.54 0 0 1 2.203 0Z"
        fill="#EE3535"
      />
    </symbol>
    <!-- oracles -->
    <symbol id="chronicle" viewBox="0 0 40 40" fill="none">
      <g clip-path="url(#chronicle-clip)">
        <path
          d="M11.429 0 0 11.429V28.57h11.429V40H28.57L40 28.571V14.286H28.571V28.57H11.43V11.43h14.285V0H11.43Z"
          fill="#2FD05B"
        />
      </g>
      <defs>
        <clipPath id="chronicle-clip">
          <path fill="#fff" d="M0 0h40v40H0z" />
        </clipPath>
      </defs>
    </symbol>

    <symbol id="pyth" viewBox="0 0 32 40" fill="none">
      <g clip-path="url(#pyth-clip)" fill="#322F33">
        <path
          d="M19.99 15.997c0 2.209-1.787 4-3.99 4v4c4.406 0 7.978-3.582 7.978-8s-3.572-8-7.978-8a7.912 7.912 0 0 0-3.99 1.07 7.997 7.997 0 0 0-3.988 6.93v20l3.586 3.596.403.404v-24c0-2.21 1.786-4 3.989-4a3.995 3.995 0 0 1 3.99 4Z"
        />
        <path
          d="M16 0c-2.907 0-5.631.78-7.978 2.141a15.963 15.963 0 0 0-3.99 3.277A15.964 15.964 0 0 0 .044 16v12l3.99 4V16c0-3.554 1.54-6.747 3.989-8.945A11.938 11.938 0 0 1 16 3.999c6.609 0 11.967 5.374 11.967 12 0 6.627-5.358 12-11.967 12v4c8.814 0 15.957-7.164 15.957-16 0-8.835-7.143-16-15.957-16Z"
        />
      </g>
      <defs>
        <clipPath id="pyth-clip">
          <path fill="#fff" transform="translate(.043)" d="M0 0h31.913v40H0z" />
        </clipPath>
      </defs>
    </symbol>

    <symbol id="chainlink" viewBox="0 0 36 40" fill="none">
      <g clip-path="url(#chainlink-clip)">
        <path
          d="m18 0-3.666 2.11-9.988 5.78L.68 10v20l3.666 2.11 10.08 5.78L18.092 40l3.665-2.11 9.897-5.78L35.32 30V10l-3.666-2.11-9.988-5.78L18 0ZM8.011 25.78V14.22L18 8.44l9.989 5.78v11.56L18 31.56l-9.989-5.78Z"
          fill="currentColor"
        />
      </g>
      <defs>
        <clipPath id="chainlink-clip">
          <path fill="#fff" transform="translate(.68)" d="M0 0h34.64v40H0z" />
        </clipPath>
      </defs>
    </symbol>

    <symbol id="question" viewBox="0 0 16 16" fill="none">
      <g clip-path="url(#question-clip)">
        <path
          d="M6.06 6a2 2 0 0 1 3.887.667c0 1.333-2 2-2 2M8 11.333h.007M14.667 8A6.667 6.667 0 1 1 1.333 8a6.667 6.667 0 0 1 13.334 0Z"
          stroke="currentColor"
          stroke-width="1.333"
          stroke-linecap="round"
          stroke-linejoin="round"
        />
      </g>
      <defs>
        <clipPath id="question-clip">
          <path fill="#fff" d="M0 0h16v16H0z" />
        </clipPath>
      </defs>
    </symbol>

    <symbol id="link-external" viewBox="0 0 20 20" fill="none">
      <path
        d="M17.5 7.5v-5m0 0h-5m5 0-6.667 6.667m-2.5-5H6.5c-1.4 0-2.1 0-2.635.272a2.5 2.5 0 0 0-1.093 1.093C2.5 6.066 2.5 6.767 2.5 8.167V13.5c0 1.4 0 2.1.272 2.635a2.5 2.5 0 0 0 1.093 1.092C4.4 17.5 5.1 17.5 6.5 17.5h5.333c1.4 0 2.1 0 2.635-.273a2.5 2.5 0 0 0 1.093-1.092c.272-.535.272-1.235.272-2.635v-1.833"
        stroke="currentColor"
        stroke-width="1.667"
        stroke-linecap="round"
        stroke-linejoin="round"
      />
    </symbol>

    <symbol id="x-close" viewBox="0 0 20 20" fill="none">
      <path
        d="M15 5 5 15M5 5l10 10"
        stroke="currentColor"
        stroke-width="1.667"
        stroke-linecap="round"
        stroke-linejoin="round"
      />
    </symbol>

    <symbol id="eth" viewBox="0 0 16 16" fill="none">
      <rect width="16" height="16" rx="8" fill="#4753BE" />
      <g fill="#fff">
        <path d="m7.998 2.666-.07.238v6.914l.07.07 3.21-1.897-3.21-5.325Z" />
        <path
          d="m7.997 2.666-3.21 5.325 3.21 1.897V2.666ZM7.997 10.932l-.04.048v2.463l.04.116 3.21-4.523-3.21 1.896Z"
        />
        <path
          d="M7.997 13.559v-2.627l-3.21-1.896 3.21 4.523ZM7.996 9.888l3.21-1.897-3.21-1.459v3.356Z"
        />
        <path d="m4.787 7.991 3.21 1.897V6.532l-3.21 1.459Z" />
      </g>
    </symbol>

    <symbol id="hamburger" fill="none" viewBox="0 0 12 16">
      <path
        fill="currentColor"
        d="M0 2.75h12v1.5H0zM0 7.25h12v1.5H0zM0 11.75h12v1.5H0z"
      />
    </symbol>

    <symbol id="uma-logo" viewBox="0 0 63 16" fill="currentcolor">
      <path
        fill-rule="evenodd"
        clip-rule="evenodd"
        d="M39.9692 15.6873H37.3335C36.8384 15.6873 36.4372 15.2849 36.4372 14.7891V7.80869L31.8106 10.7159C31.4225 10.9599 30.9289 10.9599 30.5408 10.7159L25.9143 7.80839V14.7891C25.9143 15.2849 25.5127 15.6873 25.0179 15.6873H22.3822C21.8868 15.6873 21.4858 15.2849 21.4858 14.7891V1.33507C21.4858 0.371693 22.5633 -0.197413 23.3563 0.347144L30.6692 5.36731C30.9743 5.57717 31.3771 5.57717 31.6825 5.36731L38.9948 0.347144C39.7881 -0.197712 40.8656 0.371393 40.8656 1.33477V14.7891C40.8656 15.2849 40.4643 15.6873 39.9692 15.6873Z"
      />
      <path
        fill-rule="evenodd"
        clip-rule="evenodd"
        d="M17.5172 15.5673L1.18946 15.567C0.532581 15.567 0 15.0331 0 14.3745V0.894417C0 0.400401 0.399361 0 0.892096 0H3.51515C4.00759 0 4.40725 0.400401 4.40725 0.894417V11.1483L14.2994 11.1486V0.894417C14.2994 0.400401 14.6985 0 15.1915 0H17.8146C18.307 0 18.7066 0.400401 18.7066 0.894417V14.3748C18.7066 15.0334 18.1741 15.5673 17.5172 15.5673Z"
      />
      <path
        fill-rule="evenodd"
        clip-rule="evenodd"
        d="M44.7998 0L61.1275 0.000298139C61.7844 0.000298139 62.317 0.534265 62.317 1.19285V14.6729C62.317 15.1669 61.9173 15.5673 61.4249 15.5673H58.8019C58.3091 15.5673 57.9098 15.1669 57.9098 14.6729V5.0153C57.9098 4.68615 57.6433 4.41902 57.315 4.41902L48.6123 4.41872C48.284 4.41872 48.0176 4.68555 48.0176 5.015V14.6729C48.0176 15.1669 47.6182 15.5673 47.1255 15.5673H44.5024C44.0097 15.5673 43.6104 15.1669 43.6104 14.6729V1.19256C43.6104 0.533967 44.1429 0 44.7998 0Z"
      />
      <path
        fill-rule="evenodd"
        clip-rule="evenodd"
        d="M50.7588 8.19314V10.8469C50.7588 11.3377 51.1585 11.7354 51.6516 11.7354H54.2745C54.7677 11.7354 55.1674 11.3377 55.1674 10.8469V8.19314C55.1674 7.70242 54.7677 7.30469 54.2745 7.30469H51.6516C51.1585 7.30469 50.7588 7.70242 50.7588 8.19314Z"
      />
    </symbol>
  </defs>
</svg>
